<svg width="20" height="20" viewBox="0 0 20 20" fill="none" xmlns="http://www.w3.org/2000/svg">
<g clip-path="url(#clip0_1_39)">
<path d="M6.50615 2.12961C4.88847 3.03769 3.60136 4.46722 2.87394 6.18877C2.73105 6.52694 2.89504 6.91686 3.23472 7.05608L3.25402 7.06401C3.5925 7.20268 3.97527 7.03912 4.118 6.70237C4.72917 5.26069 5.8085 4.0637 7.16404 3.30343C7.45439 3.14054 7.57939 2.78824 7.45541 2.47926L7.44752 2.45969C7.29826 2.0875 6.85576 1.93336 6.50615 2.12961Z" fill="url(#paint0_radial_1_39)"/>
<path d="M5.68833 0.0786356C3.5256 1.21605 1.80354 3.0812 0.848892 5.34631C0.703971 5.69017 0.8694 6.08642 1.21467 6.22799L1.21491 6.22806C1.55596 6.36791 1.946 6.20709 2.08912 5.8674C2.92342 3.88706 4.4304 2.25703 6.3225 1.2648C6.62633 1.10547 6.75758 0.739805 6.62988 0.421408C6.48071 0.0496122 6.0429 -0.107848 5.68833 0.0786356Z" fill="url(#paint1_radial_1_39)"/>
<path d="M10.2194 20C11.6835 20 12.8757 18.8086 12.8757 17.3438C12.8757 17.0505 12.6377 16.8125 12.3444 16.8125C12.0512 16.8125 11.8132 17.0505 11.8132 17.3438C11.8132 18.2229 11.0978 18.9375 10.2194 18.9375C9.34111 18.9375 8.62568 18.2229 8.62568 17.3438C8.62568 17.0505 8.38768 16.8125 8.09443 16.8125C7.80118 16.8125 7.56318 17.0505 7.56318 17.3438C7.56318 18.8086 8.75525 20 10.2194 20V20Z" fill="url(#paint2_radial_1_39)"/>
<path d="M4.37569 17.875H16.0632C16.7467 17.875 17.3027 17.319 17.3027 16.6355C17.3027 16.2727 17.1448 15.9292 16.8693 15.6933C16.8515 15.6778 16.8324 15.6636 16.8126 15.6508C15.7728 14.7434 15.1777 13.438 15.1777 12.0595V10.0833C15.1777 7.34922 12.9529 5.125 10.2194 5.125C10.1061 5.125 9.98352 5.12708 9.87016 5.14627C9.58054 5.19439 9.38496 5.46857 9.4332 5.75755C9.48132 6.04652 9.76044 6.2421 10.0445 6.19386C10.1012 6.18465 10.1634 6.1875 10.2194 6.1875C12.367 6.1875 14.1152 7.93494 14.1152 10.0833V12.0595C14.1152 13.7709 14.8654 15.3902 16.1715 16.5015C16.1821 16.51 16.1913 16.5178 16.2028 16.5256C16.2218 16.5497 16.2402 16.5866 16.2402 16.6355C16.2402 16.7317 16.1594 16.8125 16.0632 16.8125H4.37569C4.27933 16.8125 4.19852 16.7317 4.19852 16.6355C4.19852 16.5858 4.21694 16.5497 4.23679 16.5256C4.24742 16.5178 4.25663 16.51 4.26727 16.5015C5.57412 15.3894 6.32352 13.7293 6.32352 12.0595V9.5C6.32352 9.20675 6.08553 8.96875 5.79227 8.96875C5.49902 8.96875 5.26102 9.20675 5.26102 9.5V12.0595C5.26102 13.4388 4.66531 14.7448 3.62408 15.653C3.60502 15.6657 3.5866 15.6792 3.56961 15.6941C3.294 15.9292 3.13602 16.2727 3.13602 16.6355C3.13602 17.319 3.69205 17.875 4.37569 17.875Z" fill="url(#paint3_radial_1_39)"/>
</g>
<defs>
<radialGradient id="paint0_radial_1_39" cx="0" cy="0" r="1" gradientUnits="userSpaceOnUse" gradientTransform="translate(5.87497 34.9951) rotate(-97.4336) scale(40.899 6.16238)">
<stop offset="0.102095" stop-color="#969DC6"/>
<stop offset="0.921875" stop-color="#C7CBE7"/>
</radialGradient>
<radialGradient id="paint1_radial_1_39" cx="0" cy="0" r="1" gradientUnits="userSpaceOnUse" gradientTransform="translate(4.63253 40.8102) rotate(-97.5412) scale(50.6662 7.74201)">
<stop offset="0.102095" stop-color="#969DC6"/>
<stop offset="0.921875" stop-color="#C7CBE7"/>
</radialGradient>
<radialGradient id="paint2_radial_1_39" cx="0" cy="0" r="1" gradientUnits="userSpaceOnUse" gradientTransform="translate(9.41101 37.5313) rotate(-76.7479) scale(26.1976 6.86543)">
<stop offset="0.102095" stop-color="#969DC6"/>
<stop offset="0.921875" stop-color="#C7CBE7"/>
</radialGradient>
<radialGradient id="paint3_radial_1_39" cx="0" cy="0" r="1" gradientUnits="userSpaceOnUse" gradientTransform="translate(8.06357 88) rotate(-81.0771) scale(103.25 18.5811)">
<stop offset="0.102095" stop-color="#969DC6"/>
<stop offset="0.921875" stop-color="#C7CBE7"/>
</radialGradient>
<clipPath id="clip0_1_39">
<rect width="20" height="20" fill="white"/>
</clipPath>
</defs>
</svg>
