<svg width="19" height="15" viewBox="0 0 19 15" fill="none" xmlns="http://www.w3.org/2000/svg">
<path d="M13.0765 9.90421C13.6706 8.14677 13.6701 6.22318 13.0582 4.45724C12.9381 4.11036 12.5552 3.93042 12.2097 4.05434L12.19 4.06137C11.8457 4.18489 11.6708 4.5626 11.7902 4.90834C12.3011 6.38853 12.3003 8.00028 11.8021 9.47243C11.6954 9.7878 11.8383 10.1332 12.1372 10.2798L12.1562 10.289C12.5162 10.4657 12.9481 10.284 13.0765 9.90421Z" fill="url(#paint0_radial_1_65)"/>
<path d="M15.0568 10.8806C15.9023 8.58801 15.9334 6.04964 15.1266 3.72777C15.0041 3.37529 14.6159 3.19161 14.2647 3.31753L14.2644 3.31763C13.9174 3.44201 13.7353 3.82256 13.8563 4.17073C14.562 6.20048 14.5333 8.42021 13.7917 10.4238C13.6726 10.7456 13.8198 11.1051 14.1278 11.2562C14.4875 11.4326 14.9182 11.2565 15.0568 10.8806Z" fill="url(#paint1_radial_1_65)"/>
<path d="M8.90825 0.126484C8.44002 -0.0928351 7.90239 -0.0234591 7.50517 0.307571L3.79573 3.39876H1.31829C0.591366 3.39876 0 3.99012 0 4.71705V10.2829C0 11.0098 0.591366 11.6012 1.31829 11.6012H3.79576L7.5052 14.6924C7.90283 15.0238 8.44052 15.0926 8.90831 14.8735C9.37654 14.6542 9.6674 14.1968 9.6674 13.6797V1.32029C9.66737 0.803223 9.37651 0.345804 8.90825 0.126484ZM3.51541 10.7282H1.31829C1.076 10.7282 0.87886 10.5252 0.87886 10.2829V4.71705C0.87886 4.47476 1.076 4.27762 1.31829 4.27762H3.51541V10.7282ZM8.78854 13.6797C8.78854 13.9389 8.59489 14.0498 8.5355 14.0776C8.47615 14.1054 8.26699 14.1832 8.0678 14.0172L4.39427 10.956V4.044L8.0678 0.982727C8.26699 0.816729 8.47617 0.894542 8.5355 0.922345C8.59486 0.950148 8.78854 1.06101 8.78854 1.32029V13.6797Z" fill="url(#paint2_radial_1_65)"/>
<defs>
<radialGradient id="paint0_radial_1_65" cx="0" cy="0" r="1" gradientUnits="userSpaceOnUse" gradientTransform="translate(-8.45227 -14.9363) rotate(40.5513) scale(40.899 6.16238)">
<stop offset="0.102095" stop-color="#969DC6"/>
<stop offset="0.921875" stop-color="#C7CBE7"/>
</radialGradient>
<radialGradient id="paint1_radial_1_65" cx="0" cy="0" r="1" gradientUnits="userSpaceOnUse" gradientTransform="translate(-11.4215 -20.0883) rotate(40.4437) scale(50.6662 7.74201)">
<stop offset="0.102095" stop-color="#969DC6"/>
<stop offset="0.921875" stop-color="#C7CBE7"/>
</radialGradient>
<radialGradient id="paint2_radial_1_65" cx="0" cy="0" r="1" gradientUnits="userSpaceOnUse" gradientTransform="translate(6.30483 97.5) rotate(-95.2036) scale(120.497 12.7822)">
<stop offset="0.102095" stop-color="#969DC6"/>
<stop offset="0.921875" stop-color="#C7CBE7"/>
</radialGradient>
</defs>
</svg>
